<svg xmlns="http://www.w3.org/2000/svg" xmlns:xlink="http://www.w3.org/1999/xlink" width="576" zoomAndPan="magnify" viewBox="0 0 432 431.999984" height="576" preserveAspectRatio="xMidYMid meet" version="1.0"><defs><g/><clipPath id="bc0e1dd188"><rect x="0" width="328" y="0" height="409"/></clipPath></defs><g transform="matrix(1, 0, 0, 1, 52, 11)"><g clip-path="url(#bc0e1dd188)"><g fill="#3294c4" fill-opacity="1"><g transform="translate(1.427, 308.570595)"><g><path d="M 6.546875 0 L 6.546875 -2.984375 L 13.390625 -5.65625 C 16.765625 -7.039062 19.097656 -8.875 20.390625 -11.15625 C 21.679688 -13.445312 22.328125 -16.578125 22.328125 -20.546875 L 22.328125 -175.96875 C 22.328125 -179.9375 21.78125 -183.0625 20.6875 -185.34375 C 19.601562 -187.625 17.171875 -189.457031 13.390625 -190.84375 L 6.546875 -193.53125 L 6.546875 -196.5 L 149.171875 -196.5 L 150.953125 -150.65625 L 147.96875 -150.65625 L 135.171875 -178.640625 C 133.378906 -182.210938 131.488281 -185.085938 129.5 -187.265625 C 127.519531 -189.453125 124.546875 -190.546875 120.578125 -190.546875 L 66.984375 -190.546875 L 66.984375 -104.5 L 98.84375 -104.5 C 102.8125 -104.5 105.835938 -105.539062 107.921875 -107.625 C 110.015625 -109.707031 111.851562 -112.535156 113.4375 -116.109375 L 119.390625 -128.03125 L 122.375 -128.03125 L 122.375 -74.4375 L 119.390625 -74.4375 L 113.4375 -86.9375 C 111.644531 -90.507812 109.753906 -93.335938 107.765625 -95.421875 C 105.785156 -97.503906 102.8125 -98.546875 98.84375 -98.546875 L 66.984375 -98.546875 L 66.984375 -5.953125 L 127.125 -5.953125 C 131.101562 -5.953125 134.179688 -6.992188 136.359375 -9.078125 C 138.546875 -11.160156 140.332031 -14.085938 141.71875 -17.859375 L 153.921875 -45.84375 L 156.90625 -45.84375 L 155.125 0 Z M 6.546875 0 "/></g></g></g><g fill="#3294c4" fill-opacity="1"><g transform="translate(131.238766, 308.570595)"><g><path d="M 108.375 5.359375 C 88.125 5.359375 70.304688 1.140625 54.921875 -7.296875 C 39.546875 -15.734375 27.539062 -27.738281 18.90625 -43.3125 C 10.269531 -58.894531 5.953125 -77.304688 5.953125 -98.546875 C 5.953125 -119.191406 10.21875 -137.253906 18.75 -152.734375 C 27.289062 -168.222656 39.648438 -180.28125 55.828125 -188.90625 C 72.003906 -197.539062 91.601562 -201.859375 114.625 -201.859375 C 125.144531 -201.859375 134.921875 -200.664062 143.953125 -198.28125 C 152.984375 -195.90625 161.566406 -192.4375 169.703125 -187.875 L 170.90625 -146.1875 L 167.921875 -146.1875 L 151.25 -177.15625 C 148.664062 -182.113281 146.28125 -185.679688 144.09375 -187.859375 C 141.914062 -190.046875 139.140625 -191.738281 135.765625 -192.9375 C 132.585938 -193.925781 129.660156 -194.664062 126.984375 -195.15625 C 124.304688 -195.65625 120.785156 -195.90625 116.421875 -195.90625 C 104.109375 -195.90625 93.238281 -192.628906 83.8125 -186.078125 C 74.382812 -179.535156 67.085938 -169.117188 61.921875 -154.828125 C 56.765625 -140.535156 54.1875 -121.773438 54.1875 -98.546875 C 54.1875 -75.523438 56.617188 -56.769531 61.484375 -42.28125 C 66.347656 -27.789062 73.242188 -17.21875 82.171875 -10.5625 C 91.109375 -3.914062 101.429688 -0.59375 113.140625 -0.59375 C 114.921875 -0.59375 116.65625 -0.738281 118.34375 -1.03125 C 120.03125 -1.332031 121.671875 -1.679688 123.265625 -2.078125 C 127.035156 -2.679688 129.515625 -4.269531 130.703125 -6.84375 C 131.890625 -9.425781 132.484375 -12.503906 132.484375 -16.078125 L 132.484375 -75.03125 C 132.484375 -82.769531 128.515625 -87.53125 120.578125 -89.3125 L 106.890625 -92.890625 L 106.890625 -95.875 L 190.84375 -95.875 L 190.84375 -92.890625 L 186.671875 -91.703125 C 179.128906 -89.316406 175.359375 -84.351562 175.359375 -76.8125 L 175.359375 -12.203125 C 165.046875 -6.453125 154.578125 -2.085938 143.953125 0.890625 C 133.335938 3.867188 121.476562 5.359375 108.375 5.359375 Z M 108.375 5.359375 "/></g></g></g></g></g></svg>